HIERARCHY
ROOT Hips
{
	OFFSET 0.000000 0.000000 0.000000 
	CHANNELS 6 Xposition Yposition Zposition Zrotation Yrotation Xrotation
	JOINT LeftUpLeg
	{
		OFFSET 1.363060 -1.794630 0.839290 
		CHANNELS 3 Zrotation Yrotation Xrotation
		JOINT LeftLeg
		{
			OFFSET 2.448110 -6.726130 0.000000 
			CHANNELS 3 Zrotation Yrotation Xrotation
			JOINT LeftFoot
			{
				OFFSET 2.562200 -7.039590 0.000000 
				CHANNELS 3 Zrotation Yrotation Xrotation
				JOINT LeftToeBase
				{
					OFFSET 0.157640 -0.433110 2.322550 
					CHANNELS 3 Zrotation Yrotation Xrotation
					End Site
					{
						OFFSET 0.000000 0.000000 0.000000 
					}
				}
			}
		}
	}
	JOINT RightUpLeg
	{
		OFFSET -1.305520 -1.794630 0.839290 
		CHANNELS 3 Zrotation Yrotation Xrotation
		JOINT RightLeg
		{
			OFFSET -2.542530 -6.985550 0.000000 
			CHANNELS 3 Zrotation Yrotation Xrotation
			JOINT RightFoot
			{
				OFFSET -2.568260 -7.056230 0.000000 
				CHANNELS 3 Zrotation Yrotation Xrotation
				JOINT RightToeBase
				{
					OFFSET -0.164730 -0.452590 2.363150 
					CHANNELS 3 Zrotation Yrotation Xrotation
					End Site
					{
						OFFSET 0.000000 0.000000 0.000000 
					}
				}
			}
		}
	}
	JOINT Spine
	{
		OFFSET 0.028270 2.035590 -0.193380 
		CHANNELS 3 Zrotation Yrotation Xrotation
		JOINT Spine1
		{
			OFFSET 0.056720 2.048850 -0.042750 
			CHANNELS 3 Zrotation Yrotation Xrotation
			JOINT Neck1
			{
				OFFSET -0.054170 1.746240 0.172020 
				CHANNELS 3 Zrotation Yrotation Xrotation
				JOINT Head
				{
					OFFSET 0.104070 1.761360 -0.123970 
					CHANNELS 3 Zrotation Yrotation Xrotation
					End Site
					{
						OFFSET 0.000000 0.000000 0.000000 
					}
				}
			}
			JOINT LeftArm
			{
				OFFSET 3.362410 1.200890 -0.311210 
				CHANNELS 3 Zrotation Yrotation Xrotation
				JOINT LeftForeArm
				{
					OFFSET 4.983000 -0.000000 -0.000000 
					CHANNELS 3 Zrotation Yrotation Xrotation
					JOINT LeftHand
					{
						OFFSET 3.483560 -0.000000 -0.000000 
						CHANNELS 3 Zrotation Yrotation Xrotation
						JOINT LeftHandIndex1
						{
							OFFSET 0.715260 -0.000000 -0.000000 
							CHANNELS 3 Zrotation Yrotation Xrotation
							End Site
							{
								OFFSET 0.000000 0.000000 0.000000 
							}
						}
					}
				}
			}
			JOINT RightArm
			{
				OFFSET -3.136600 1.374050 -0.404650 
				CHANNELS 3 Zrotation Yrotation Xrotation
				JOINT RightForeArm
				{
					OFFSET -5.241900 -0.000000 -0.000000 
					CHANNELS 3 Zrotation Yrotation Xrotation
					JOINT RightHand
					{
						OFFSET -3.444170 -0.000000 -0.000000 
						CHANNELS 3 Zrotation Yrotation Xrotation
						JOINT RightHandIndex1
						{
							OFFSET -0.622530 -0.000000 -0.000000 
							CHANNELS 3 Zrotation Yrotation Xrotation
							End Site
							{
								OFFSET 0.000000 0.000000 0.000000 
							}
						}
					}
				}
			}
		}
	}
}
MOTION
Frames: 18
Frame Time: 0.041667
7.512655 17.802123 38.206003 -179.100792 2.137428 -170.257168 -22.984573 -13.443533 -5.036006 0.590064 5.649283 17.261357 0.885426 -4.431005 -15.464475 9.043500 -16.835600 -56.240500 31.242924 3.741354 -1.538809 0.119117 -2.235896 11.132445 -0.741724 2.713788 -14.063998 -2.640700 10.089400 -29.266700 0.572525 2.427850 -5.265766 1.769808 1.236774 3.004351 5.832348 -1.256579 15.797799 1.647500 -0.604100 6.808300 -87.398139 1.520202 6.721196 2.808300 -10.159991 -1.025232 0.545183 1.071456 40.470013 -7.125000 0.000000 0.000000 86.242797 -6.362358 -12.147207 -4.527516 21.460727 -3.512500 -0.660497 -2.216606 28.796620 7.125000 0.000000 0.000000 
7.516201 17.802982 38.219651 -179.132713 2.193630 -170.347806 -22.894325 -13.016757 -5.091771 0.561110 5.612954 17.150236 0.952818 -4.193533 -16.137330 9.632600 -17.198000 -58.253300 31.248971 3.873637 -1.455118 0.127642 -2.230659 11.123490 -0.733306 2.475543 -14.035592 -2.746700 10.273300 -29.866200 0.564058 2.471522 -5.253894 1.802039 1.250329 3.003567 5.717203 -1.499029 16.781195 1.550200 -0.735500 7.244200 -87.427683 1.550980 7.557433 2.918981 -10.355459 -1.034662 0.523885 1.073475 39.570579 -7.125000 0.000000 0.000000 86.421944 -6.622070 -10.278924 -4.881734 22.188426 -3.578546 -0.532708 -2.289644 25.701820 7.125000 0.000000 0.000000 
7.518028 17.803520 38.232116 -179.102948 2.262254 -170.364099 -22.790364 -12.880862 -5.125701 0.527696 5.594854 17.081179 1.027625 -3.693278 -16.949064 10.179300 -17.509400 -60.085900 31.308923 4.063835 -1.457651 0.132282 -2.242092 11.142433 -0.734955 2.361229 -14.075439 -2.633400 10.076600 -29.225000 0.567402 2.453009 -5.232527 1.805329 1.229112 3.094580 5.660110 -1.691757 17.604836 1.493900 -0.840700 7.615200 -87.523041 1.470979 7.868923 2.985506 -10.463124 -1.042719 0.511700 1.075481 39.154216 -7.125000 0.000000 0.000000 86.542740 -6.668290 -8.578569 -5.123558 22.732300 -3.609150 -0.416534 -2.349946 22.953692 7.125000 0.000000 0.000000 
7.517813 17.803735 38.245334 -179.106207 2.334909 -170.406887 -22.823473 -13.042644 -5.026347 0.489008 5.592784 17.058864 1.097523 -2.819891 -17.855490 10.751700 -17.811400 -61.972400 31.300053 4.150900 -1.486282 0.127829 -2.269191 11.210025 -0.734588 2.301679 -14.087046 -2.611900 10.038700 -29.102000 0.565726 2.412426 -5.207444 1.789117 1.196080 3.185636 5.754605 -1.833953 18.490530 1.532300 -0.925500 8.020600 -87.628930 1.335525 7.932965 3.113058 -10.633747 -1.054568 0.513335 1.063290 39.292859 -7.125000 0.000000 0.000000 86.627856 -6.635724 -6.879319 -5.304498 23.186503 -3.614414 -0.296249 -2.403322 20.157101 7.125000 0.000000 0.000000 
7.516953 17.804057 38.261238 -179.044806 2.402411 -170.422575 -22.784960 -13.343564 -4.973581 0.468793 5.665119 17.236801 1.206469 -1.987676 -19.102019 11.212700 -18.037600 -63.470400 31.371383 4.250656 -1.584757 0.117300 -2.332635 11.365520 -0.737752 2.245043 -14.131842 -2.650600 10.106800 -29.323200 0.565871 2.400743 -5.183812 1.761842 1.183166 3.257736 5.974758 -1.993320 19.285121 1.631600 -1.016100 8.372100 -87.703672 1.219726 8.260086 3.352401 -10.964233 -1.082011 0.534496 1.036872 39.561250 -7.125000 0.000000 0.000000 86.753069 -6.680169 -4.447104 -5.525566 23.749474 -3.562607 -0.078397 -2.463247 15.460788 7.125000 0.000000 0.000000 
7.515879 17.802660 38.276713 -178.997846 2.438748 -170.394671 -22.712970 -13.536823 -5.047832 0.488141 5.781479 17.541659 1.339852 -2.036717 -20.160488 11.274900 -18.067000 -63.671000 31.441432 4.439081 -1.706491 0.108404 -2.399411 11.521349 -0.755003 2.206959 -14.298074 -2.622600 10.057500 -29.163200 0.555215 2.403833 -5.161886 1.704128 1.172619 3.356680 6.125961 -2.246029 20.033461 1.671600 -1.144700 8.704000 -87.723446 1.149652 9.191112 3.603723 -11.342170 -1.127855 0.542053 1.036810 39.012865 -7.125000 0.000000 0.000000 86.878455 -6.498546 -4.608959 -5.849917 24.091240 -3.653843 -0.056642 -2.474102 16.770901 7.125000 0.000000 0.000000 
7.515019 17.801263 38.290361 -179.034024 2.466311 -170.412112 -22.750735 -13.584512 -5.088791 0.529925 5.835055 17.697102 1.379128 -2.938912 -20.112792 10.846600 -17.859200 -62.282300 31.419162 4.591960 -1.751928 0.101571 -2.442034 11.627501 -0.767192 2.155876 -14.418811 -2.617800 10.049100 -29.135700 0.533666 2.425211 -5.149317 1.662749 1.175801 3.394885 6.301935 -2.543769 20.854609 1.722000 -1.299200 9.070300 -87.746493 1.018895 9.967587 3.723146 -11.532721 -1.151142 0.528187 1.048755 38.258390 -7.125000 0.000000 0.000000 87.079063 -6.671132 -3.390606 -6.322159 24.809271 -3.787974 -0.018039 -2.504145 14.710151 7.125000 0.000000 0.000000 
7.514482 17.802338 38.303901 -179.041150 2.522646 -170.486959 -22.755763 -13.552491 -5.061322 0.532849 5.834685 17.698084 1.384304 -3.045668 -20.112346 10.764800 -17.818000 -62.015200 31.416664 4.644706 -1.753681 0.093519 -2.474694 11.719409 -0.771044 2.144240 -14.455032 -2.648000 10.102200 -29.308400 0.543153 2.411063 -5.145447 1.748494 1.170384 3.368963 6.463275 -2.731435 21.686975 1.802700 -1.423500 9.426200 -87.929712 0.757848 9.936845 3.667011 -11.449647 -1.144324 0.535395 1.046321 38.234716 -7.125000 0.000000 0.000000 87.125058 -6.995547 -2.168155 -6.963657 25.646483 -3.946058 0.098434 -2.524092 13.224933 7.125000 0.000000 0.000000 
7.515771 17.804809 38.321739 -178.914350 2.521998 -170.565414 -22.560343 -13.523730 -5.099299 0.544640 5.858695 17.759549 1.385357 -3.201750 -20.066233 10.677700 -17.773700 -61.730400 31.592428 4.709614 -1.736287 0.093704 -2.497653 11.780926 -0.776505 2.108825 -14.509853 -2.629300 10.069200 -29.201100 0.597021 2.315627 -5.141093 1.912576 1.128033 3.339265 6.665658 -2.834440 22.441050 1.927200 -1.515000 9.753500 -88.224839 0.483614 10.041852 3.679520 -11.467179 -1.158942 0.555577 1.044923 38.196249 -7.125000 0.000000 0.000000 87.014703 -7.080885 -1.522957 -7.385942 26.134212 -4.056075 0.137860 -2.510054 13.017541 7.125000 0.000000 0.000000 
7.515986 17.807281 38.342587 -178.728337 2.440770 -170.594036 -22.284570 -13.554324 -5.237679 0.569474 5.911296 17.893087 1.387419 -3.532327 -19.971784 10.572400 -17.719400 -61.384900 31.846923 4.777108 -1.786079 0.095008 -2.531866 11.860288 -0.774613 2.019387 -14.515860 -2.606900 10.029800 -29.073300 0.648504 2.213686 -5.133604 2.004376 1.078875 3.338082 6.862689 -2.979724 23.211405 2.035700 -1.619900 10.111700 -88.425944 0.226456 10.879896 3.844005 -11.714967 -1.196100 0.562212 1.049537 37.654549 -7.125000 0.000000 0.000000 86.924107 -6.907117 -1.412470 -7.565584 26.307582 -4.113015 0.119415 -2.492817 13.623451 7.125000 0.000000 0.000000 
7.513085 17.807281 38.357309 -178.701356 2.406674 -170.579773 -22.230979 -13.507643 -5.287890 0.563259 5.878560 17.795037 1.372358 -3.688980 -19.802303 10.546100 -17.705700 -61.298400 31.869038 4.771869 -1.882107 0.090905 -2.551953 11.902641 -0.761139 1.976227 -14.412540 -2.628200 10.067400 -29.195200 0.663257 2.145564 -5.113425 2.036555 1.034706 3.431264 6.912927 -3.232638 23.926576 2.043300 -1.765300 10.460300 -88.507763 -0.071365 11.943585 4.022618 -11.987379 -1.234678 0.562416 1.058237 36.914526 -7.125000 0.000000 0.000000 86.879581 -6.758891 -1.053411 -7.786255 26.572969 -4.185759 0.121978 -2.489768 13.708045 7.125000 0.000000 0.000000 
7.509538 17.805884 38.369345 -178.760032 2.434689 -170.534934 -22.280502 -13.388075 -5.272875 0.535339 5.784696 17.531132 1.351109 -3.752165 -19.610057 10.526200 -17.695300 -61.232900 31.770165 4.779952 -1.982199 0.088407 -2.549934 11.883792 -0.747051 1.978123 -14.293080 -2.561000 9.948100 -28.808700 0.656936 2.101987 -5.086072 2.035747 0.995560 3.583412 6.893767 -3.564439 24.670743 2.003900 -1.943800 10.850400 -88.539005 -0.376455 13.046717 4.231230 -12.298550 -1.278552 0.560604 1.067873 36.064703 -7.125000 0.000000 0.000000 86.870304 -6.650788 -0.518330 -8.055162 26.911974 -4.260711 0.150620 -2.493538 13.362695 7.125000 0.000000 0.000000 
7.505670 17.804809 38.381596 -178.849363 2.479104 -170.531806 -22.412010 -13.487495 -5.261691 0.539721 5.786827 17.535825 1.361871 -3.936832 -19.633834 10.382800 -17.619600 -60.760300 31.632791 4.777824 -2.064534 0.080390 -2.561332 11.908267 -0.741961 2.023452 -14.240919 -2.442000 9.731700 -28.112300 0.641937 2.086701 -5.059184 2.024939 0.972107 3.699712 6.965356 -3.808034 25.475133 2.020700 -2.087100 11.261800 -88.556430 -0.614136 14.166941 4.491514 -12.676625 -1.329192 0.554264 1.076776 35.239406 -7.125000 0.000000 0.000000 86.894429 -6.478051 -0.277139 -8.194041 27.081487 -4.296890 0.162749 -2.497389 13.323448 7.125000 0.000000 0.000000 
7.502124 17.803627 38.390193 -179.018214 2.524166 -170.581440 -22.694752 -13.764983 -5.196918 0.562914 5.844482 17.699937 1.392475 -4.180173 -19.796906 10.149100 -17.492900 -59.985700 31.388698 4.662242 -2.097721 0.068908 -2.561454 11.919742 -0.737089 2.112019 -14.178485 -2.497200 9.832900 -28.437200 0.624418 2.085111 -5.027354 2.066900 0.954525 3.808395 7.035688 -3.964729 26.217957 2.040000 -2.191900 11.619300 -88.581002 -0.801676 15.523063 4.836935 -13.175160 -1.391107 0.539882 1.084110 34.079629 -7.125000 0.000000 0.000000 86.942990 -6.308501 -0.246995 -8.268924 27.167205 -4.325799 0.168053 -2.506352 13.483568 7.125000 0.000000 0.000000 
7.499222 17.801478 38.400402 -179.158999 2.561882 -170.581337 -22.900889 -13.910567 -5.202152 0.571976 5.866471 17.758691 1.404290 -4.311289 -19.851608 10.036200 -17.430100 -59.609200 31.178320 4.529339 -2.198604 0.060254 -2.559402 11.913509 -0.728950 2.181496 -14.093765 -2.689400 10.174500 -29.543500 0.616412 2.075084 -5.007197 2.136791 0.936536 3.892303 7.113150 -4.099983 26.882395 2.068500 -2.285000 11.951700 -88.628467 -0.971305 17.034128 5.251401 -13.762622 -1.464772 0.520572 1.090452 32.628001 -7.125000 0.000000 0.000000 86.977023 -6.178252 -0.216337 -8.314584 27.221383 -4.347485 0.170279 -2.514064 13.486413 7.125000 0.000000 0.000000 
7.497395 17.800296 38.412545 -179.207412 2.613793 -170.580596 -22.958630 -13.908625 -5.260350 0.571188 5.877225 17.781342 1.401892 -4.208392 -19.870323 10.093200 -17.461900 -59.799400 31.092680 4.476592 -2.294648 0.051199 -2.575617 11.951575 -0.724523 2.247004 -14.044414 -2.745400 10.271100 -29.859200 0.621141 2.043512 -4.985873 2.190367 0.911157 3.969323 7.241873 -4.254406 27.420380 2.129000 -2.385500 12.225300 -88.691105 -1.159510 18.189047 5.626089 -14.281346 -1.540683 0.504092 1.101655 31.554025 -7.125000 0.000000 0.000000 86.955539 -6.024428 -0.061548 -8.232301 27.133082 -4.296458 0.198957 -2.515940 13.286855 7.125000 0.000000 0.000000 
7.496321 17.801263 38.421679 -179.128590 2.667102 -170.628579 -22.852911 -13.808315 -5.250335 0.562092 5.861480 17.734585 1.397143 -4.075281 -19.874705 10.155300 -17.496300 -60.006200 31.190189 4.500839 -2.260449 0.049746 -2.583540 11.974289 -0.718510 2.269015 -13.985824 -2.697000 10.187600 -29.586400 0.625115 2.051475 -4.950587 2.157916 0.906888 4.069136 7.315602 -4.522992 27.911691 2.139600 -2.533400 12.469200 -88.680460 -1.367354 19.260300 5.973625 -14.756306 -1.613476 0.487173 1.113560 30.607163 -7.125000 0.000000 0.000000 87.006773 -5.906041 -0.019695 -8.122787 27.006304 -4.212394 0.263355 -2.523629 13.156918 7.125000 0.000000 0.000000 
7.495031 17.802123 38.430168 -178.982575 2.742763 -170.610784 -22.652327 -13.705197 -5.285826 0.550703 5.832031 17.646015 1.392129 -4.044833 -19.843521 10.168700 -17.503600 -60.050600 31.390309 4.671358 -2.267122 0.055132 -2.598695 11.997614 -0.717060 2.206917 -13.988336 -2.685700 10.168000 -29.522400 0.616048 2.126874 -4.934023 2.056118 0.941793 4.124771 7.323780 -4.800135 28.496813 2.105500 -2.688100 12.759800 -88.585378 -1.507235 20.445087 6.325869 -15.235711 -1.690285 0.474986 1.125201 29.610805 -7.125000 0.000000 0.000000 87.125096 -5.843703 -0.259207 -8.083654 26.959467 -4.199525 0.256487 -2.532984 13.197696 7.125000 0.000000 0.000000 
